<mxfile host="65bd71144e">
    <diagram id="ZniFzH25NhnQSn2HjZp7" name="Page-1">
        <mxGraphModel dx="1166" dy="406" grid="1" gridSize="10" guides="1" tooltips="1" connect="1" arrows="1" fold="1" page="1" pageScale="1" pageWidth="850" pageHeight="1100" math="0" shadow="0">
            <root>
                <mxCell id="0"/>
                <mxCell id="1" parent="0"/>
                <mxCell id="2" value="Sistem" style="swimlane;whiteSpace=wrap;html=1;" parent="1" vertex="1">
                    <mxGeometry x="280" y="81" width="200" height="360" as="geometry"/>
                </mxCell>
                <mxCell id="7" value="Menampilkan halaman PLO" style="rounded=1;whiteSpace=wrap;html=1;" parent="2" vertex="1">
                    <mxGeometry x="50" y="100" width="100" height="50" as="geometry"/>
                </mxCell>
                <mxCell id="16" value="" style="edgeStyle=none;html=1;" parent="2" source="11" target="15" edge="1">
                    <mxGeometry relative="1" as="geometry"/>
                </mxCell>
                <mxCell id="11" value="Perubahan data tersimpan" style="rounded=1;whiteSpace=wrap;html=1;" parent="2" vertex="1">
                    <mxGeometry x="50" y="190" width="100" height="50" as="geometry"/>
                </mxCell>
                <mxCell id="15" value="" style="ellipse;html=1;shape=endState;fillColor=#000000;strokeColor=#ff0000;" parent="2" vertex="1">
                    <mxGeometry x="85" y="290" width="30" height="30" as="geometry"/>
                </mxCell>
                <mxCell id="3" value="User" style="swimlane;whiteSpace=wrap;html=1;" parent="1" vertex="1">
                    <mxGeometry x="80" y="80" width="200" height="360" as="geometry"/>
                </mxCell>
                <mxCell id="4" value="" style="ellipse;html=1;shape=startState;fillColor=#000000;strokeColor=#ff0000;" parent="3" vertex="1">
                    <mxGeometry x="85" y="40" width="30" height="30" as="geometry"/>
                </mxCell>
                <mxCell id="5" value="" style="edgeStyle=orthogonalEdgeStyle;html=1;verticalAlign=bottom;endArrow=open;endSize=8;strokeColor=#ff0000;entryX=0.5;entryY=0;entryDx=0;entryDy=0;" parent="3" source="4" target="6" edge="1">
                    <mxGeometry relative="1" as="geometry">
                        <mxPoint x="100" y="130" as="targetPoint"/>
                    </mxGeometry>
                </mxCell>
                <mxCell id="6" value="Membuka halaman PLO" style="rounded=1;whiteSpace=wrap;html=1;" parent="3" vertex="1">
                    <mxGeometry x="50" y="100" width="100" height="50" as="geometry"/>
                </mxCell>
                <mxCell id="9" value="Pilih data PLO yang ingin di hapus" style="rounded=1;whiteSpace=wrap;html=1;" parent="3" vertex="1">
                    <mxGeometry x="50" y="190" width="100" height="50" as="geometry"/>
                </mxCell>
                <mxCell id="8" value="" style="edgeStyle=none;html=1;" parent="1" source="6" target="7" edge="1">
                    <mxGeometry relative="1" as="geometry"/>
                </mxCell>
                <mxCell id="10" value="" style="edgeStyle=none;html=1;entryX=0.474;entryY=-0.011;entryDx=0;entryDy=0;entryPerimeter=0;" parent="1" source="7" target="9" edge="1">
                    <mxGeometry relative="1" as="geometry">
                        <Array as="points">
                            <mxPoint x="380" y="250"/>
                            <mxPoint x="177" y="250"/>
                        </Array>
                    </mxGeometry>
                </mxCell>
                <mxCell id="12" value="" style="edgeStyle=none;html=1;" parent="1" source="9" target="11" edge="1">
                    <mxGeometry relative="1" as="geometry"/>
                </mxCell>
            </root>
        </mxGraphModel>
    </diagram>
</mxfile>